<svg id="Layer_1" data-name="Layer 1" xmlns="http://www.w3.org/2000/svg" viewBox="0 0 251.34 222.81"><defs><style>.cls-1{fill:#01d277}</style></defs><path class="cls-1" d="M2944.56 2236.34c14.6 0 24.48-9.88 24.48-24.48v-159.28c0-14.6-9.88-24.48-24.48-24.48h-202.37c-14.6 0-24.48 9.88-24.48 24.48v198.33l12.56-14.56v-183.77a11.94 11.94 0 0 1 11.92-11.92h202.37a11.94 11.94 0 0 1 11.92 11.92v159.28a11.94 11.94 0 0 1-11.92 11.92h-183.74l-12.56 12.56-.08-.1" transform="translate(-2717.71 -2028.09)"/><path class="cls-1" d="M61.38 77.29h6.94V49.52h8.64v-6.89H52.74v6.89h8.64v27.77zm38.15 0h6.94V42.58h-6.94v13.88H89.14V42.58H82.2v34.71h6.94V63.4h10.39v13.89zm32.72-6.95h-13.02V63.4h11.12v-6.94h-11.12v-6.94h12.43v-6.94h-19.38v34.71h19.97v-6.95zm-63.59 31.01L54.97 86.11h-2.23v35.24h7.04v-19.37l8.88 9.32 8.88-9.32-.04 19.37h7.03V86.11h-2.18l-13.69 15.24z"/><path class="cls-1" d="M2825.75 2114.16c-23.88 0-23.88 35.77 0 35.77s23.88-35.77 0-35.77zm0 28.59c-13.88 0-13.88-21.45 0-21.45s13.88 21.45 0 21.45z" transform="translate(-2717.71 -2028.09)"/><path class="cls-1" d="M165.37 86.65h6.94v34.7h-6.94zm19.7 27.76v-6.94h11.12v-6.94h-11.12v-6.94h12.43v-6.94h-19.37v34.7h19.96v-6.94h-13.02z"/><path class="cls-1" d="M2780.79 2158.81h-10.34v34.7h10.34c23.1 0 23.1-34.7 0-34.7zm0 27.76h-3.4v-20.82h3.4c13.49 0 13.49 20.82 0 20.82z" transform="translate(-2717.71 -2028.09)"/><path class="cls-1" d="M2824 2176.13c2.18-1.5 3.11-4.22 3.2-6.84.15-6.12-3.69-10.53-9.85-10.53h-13.74v34.75h13.74a10.32 10.32 0 0 0 10.24-10.44 8.43 8.43 0 0 0-3.59-6.94zm-13.4-10.44h6.17a3.51 3.51 0 0 1 0 7h-6.17v-7zm6.17 20.87h-6.17v-6.94h6.17a3.41 3.41 0 0 1 3.49 3.45 3.45 3.45 0 0 1-3.49 3.5z" transform="translate(-2717.71 -2028.09)"/><path class="cls-1" d="M144.01 105.38l-9.14-18.73h-8.01l16.37 35.43h1.56l16.36-35.43h-8.01l-9.13 18.73z"/></svg>